<svg width="41" height="40" viewBox="0 0 41 40" fill="none" xmlns="http://www.w3.org/2000/svg">
<path d="M22.72 28.44H24.12V29H17.12V28.44H18.52V16.68H17.4V16.12H22.72V28.44ZM22.972 12.424C22.972 13.096 22.7293 13.6747 22.244 14.16C21.7773 14.6267 21.1987 14.86 20.508 14.86C19.836 14.86 19.2573 14.6267 18.772 14.16C18.2867 13.6747 18.044 13.096 18.044 12.424C18.044 11.7333 18.2867 11.1453 18.772 10.66C19.2573 10.1747 19.836 9.932 20.508 9.932C21.1987 9.932 21.7773 10.1747 22.244 10.66C22.7293 11.1453 22.972 11.7333 22.972 12.424Z" fill="white"/>
<path d="M39.5 20C39.5 30.1826 31.0285 38.5 20.5 38.5C9.97146 38.5 1.5 30.1826 1.5 20C1.5 9.81743 9.97146 1.5 20.5 1.5C31.0285 1.5 39.5 9.81743 39.5 20Z" stroke="white" stroke-width="3"/>
</svg>
